<svg width="61" height="19" viewBox="0 0 61 19" fill="none" xmlns="http://www.w3.org/2000/svg">
<path d="M0 16.12H16V0.12H0V16.12ZM21.6819 15C21.5645 15 21.4739 14.968 21.4099 14.904C21.3459 14.8293 21.3139 14.7387 21.3139 14.632V4.184C21.3139 4.06667 21.3459 3.976 21.4099 3.912C21.4739 3.83733 21.5645 3.8 21.6819 3.8H26.0659C26.8659 3.8 27.5165 3.93333 28.0179 4.2C28.5299 4.456 28.9032 4.808 29.1379 5.256C29.3832 5.704 29.5059 6.20533 29.5059 6.76C29.5059 7.19733 29.4312 7.576 29.2819 7.896C29.1432 8.20533 28.9672 8.46133 28.7539 8.664C28.5405 8.856 28.3325 9.00533 28.1299 9.112C28.5459 9.31467 28.9139 9.64533 29.2339 10.104C29.5645 10.5627 29.7299 11.1173 29.7299 11.768C29.7299 12.3547 29.5965 12.8933 29.3299 13.384C29.0632 13.8747 28.6632 14.2693 28.1299 14.568C27.6072 14.856 26.9565 15 26.1779 15H21.6819ZM22.8819 13.704H25.9699C26.6632 13.704 27.1965 13.5173 27.5699 13.144C27.9432 12.7707 28.1299 12.312 28.1299 11.768C28.1299 11.2027 27.9432 10.7387 27.5699 10.376C27.1965 10.0027 26.6632 9.816 25.9699 9.816H22.8819V13.704ZM22.8819 8.536H25.8259C26.5085 8.536 27.0259 8.38133 27.3779 8.072C27.7299 7.752 27.9059 7.32 27.9059 6.776C27.9059 6.232 27.7299 5.816 27.3779 5.528C27.0259 5.24 26.5085 5.096 25.8259 5.096H22.8819V8.536ZM32.1774 15C32.0707 15 31.98 14.968 31.9054 14.904C31.8414 14.8293 31.8094 14.7387 31.8094 14.632V4.008C31.8094 3.90133 31.8414 3.816 31.9054 3.752C31.98 3.67733 32.0707 3.64 32.1774 3.64H32.9294C33.0467 3.64 33.1374 3.67733 33.2014 3.752C33.2654 3.816 33.2974 3.90133 33.2974 4.008V14.632C33.2974 14.7387 33.2654 14.8293 33.2014 14.904C33.1374 14.968 33.0467 15 32.9294 15H32.1774ZM39.092 15.16C38.2813 15.16 37.604 15.0053 37.06 14.696C36.516 14.3867 36.1 13.96 35.812 13.416C35.524 12.8613 35.364 12.232 35.332 11.528C35.3213 11.3467 35.316 11.1173 35.316 10.84C35.316 10.552 35.3213 10.3227 35.332 10.152C35.364 9.43733 35.524 8.808 35.812 8.264C36.1107 7.72 36.532 7.29333 37.076 6.984C37.62 6.67467 38.292 6.52 39.092 6.52C39.892 6.52 40.564 6.67467 41.108 6.984C41.652 7.29333 42.068 7.72 42.356 8.264C42.6547 8.808 42.82 9.43733 42.852 10.152C42.8627 10.3227 42.868 10.552 42.868 10.84C42.868 11.1173 42.8627 11.3467 42.852 11.528C42.82 12.232 42.66 12.8613 42.372 13.416C42.084 13.96 41.668 14.3867 41.124 14.696C40.58 15.0053 39.9027 15.16 39.092 15.16ZM39.092 13.928C39.7533 13.928 40.2813 13.72 40.676 13.304C41.0707 12.8773 41.284 12.2587 41.316 11.448C41.3267 11.288 41.332 11.0853 41.332 10.84C41.332 10.5947 41.3267 10.392 41.316 10.232C41.284 9.42133 41.0707 8.808 40.676 8.392C40.2813 7.96533 39.7533 7.752 39.092 7.752C38.4307 7.752 37.8973 7.96533 37.492 8.392C37.0973 8.808 36.8893 9.42133 36.868 10.232C36.8573 10.392 36.852 10.5947 36.852 10.84C36.852 11.0853 36.8573 11.288 36.868 11.448C36.8893 12.2587 37.0973 12.8773 37.492 13.304C37.8973 13.72 38.4307 13.928 39.092 13.928ZM48.2795 18.52C47.5542 18.52 46.9568 18.424 46.4875 18.232C46.0288 18.04 45.6662 17.8053 45.3995 17.528C45.1435 17.2613 44.9568 16.9893 44.8395 16.712C44.7328 16.4453 44.6742 16.232 44.6635 16.072C44.6528 15.9653 44.6848 15.8747 44.7595 15.8C44.8448 15.7253 44.9355 15.688 45.0315 15.688H45.7995C45.8955 15.688 45.9755 15.7093 46.0395 15.752C46.1035 15.7947 46.1568 15.8853 46.1995 16.024C46.2635 16.184 46.3595 16.36 46.4875 16.552C46.6155 16.7547 46.8128 16.9253 47.0795 17.064C47.3462 17.2133 47.7195 17.288 48.1995 17.288C48.7008 17.288 49.1222 17.2187 49.4635 17.08C49.8048 16.952 50.0608 16.7173 50.2315 16.376C50.4128 16.0453 50.5035 15.5867 50.5035 15V13.912C50.2475 14.2427 49.9115 14.52 49.4955 14.744C49.0795 14.9573 48.5568 15.064 47.9275 15.064C47.3302 15.064 46.8182 14.9627 46.3915 14.76C45.9648 14.5467 45.6128 14.264 45.3355 13.912C45.0688 13.5493 44.8662 13.1387 44.7275 12.68C44.5995 12.2213 44.5248 11.7413 44.5035 11.24C44.4928 10.9413 44.4928 10.648 44.5035 10.36C44.5248 9.85867 44.5995 9.37867 44.7275 8.92C44.8662 8.46133 45.0688 8.05067 45.3355 7.688C45.6128 7.32533 45.9648 7.04267 46.3915 6.84C46.8182 6.62667 47.3302 6.52 47.9275 6.52C48.5675 6.52 49.0955 6.64267 49.5115 6.888C49.9382 7.12267 50.2848 7.41067 50.5515 7.752V7.064C50.5515 6.95733 50.5835 6.86667 50.6475 6.792C50.7222 6.71733 50.8128 6.68 50.9195 6.68H51.6555C51.7622 6.68 51.8528 6.71733 51.9275 6.792C52.0022 6.86667 52.0395 6.95733 52.0395 7.064V14.824C52.0395 15.5387 51.9168 16.1733 51.6715 16.728C51.4368 17.2827 51.0422 17.72 50.4875 18.04C49.9435 18.36 49.2075 18.52 48.2795 18.52ZM48.2475 13.784C48.7808 13.784 49.2075 13.6613 49.5275 13.416C49.8582 13.1707 50.0982 12.8613 50.2475 12.488C50.4075 12.1147 50.4928 11.736 50.5035 11.352C50.5142 11.2027 50.5195 11.0213 50.5195 10.808C50.5195 10.584 50.5142 10.3973 50.5035 10.248C50.4928 9.864 50.4075 9.48533 50.2475 9.112C50.0982 8.73867 49.8582 8.42933 49.5275 8.184C49.2075 7.93867 48.7808 7.816 48.2475 7.816C47.7142 7.816 47.2875 7.93867 46.9675 8.184C46.6475 8.41867 46.4182 8.73333 46.2795 9.128C46.1408 9.512 46.0608 9.928 46.0395 10.376C46.0288 10.6533 46.0288 10.936 46.0395 11.224C46.0608 11.672 46.1408 12.0933 46.2795 12.488C46.4182 12.872 46.6475 13.1867 46.9675 13.432C47.2875 13.6667 47.7142 13.784 48.2475 13.784ZM57.2984 15.16C56.701 15.16 56.189 15.0853 55.7624 14.936C55.3357 14.7867 54.989 14.6053 54.7224 14.392C54.4557 14.1787 54.253 13.9653 54.1144 13.752C53.9864 13.5387 53.917 13.368 53.9064 13.24C53.8957 13.1227 53.933 13.032 54.0184 12.968C54.1037 12.904 54.189 12.872 54.2744 12.872H54.9784C55.0424 12.872 55.0904 12.8827 55.1224 12.904C55.165 12.9147 55.2184 12.9573 55.2824 13.032C55.421 13.1813 55.5757 13.3307 55.7464 13.48C55.917 13.6293 56.125 13.752 56.3704 13.848C56.6264 13.944 56.941 13.992 57.3144 13.992C57.8584 13.992 58.3064 13.8907 58.6584 13.688C59.0104 13.4747 59.1864 13.1653 59.1864 12.76C59.1864 12.4933 59.1117 12.28 58.9624 12.12C58.8237 11.96 58.5677 11.816 58.1944 11.688C57.8317 11.56 57.3304 11.4267 56.6904 11.288C56.0504 11.1387 55.5437 10.9573 55.1704 10.744C54.797 10.52 54.5304 10.2587 54.3704 9.96C54.2104 9.65067 54.1304 9.304 54.1304 8.92C54.1304 8.52533 54.2477 8.14667 54.4824 7.784C54.717 7.41067 55.0584 7.10667 55.5064 6.872C55.965 6.63733 56.5357 6.52 57.2184 6.52C57.773 6.52 58.2477 6.58933 58.6424 6.728C59.037 6.86667 59.3624 7.04267 59.6184 7.256C59.8744 7.45867 60.0664 7.66133 60.1944 7.864C60.3224 8.06667 60.3917 8.23733 60.4024 8.376C60.413 8.48267 60.381 8.57333 60.3064 8.648C60.2317 8.712 60.1464 8.744 60.0504 8.744H59.3784C59.3037 8.744 59.2397 8.728 59.1864 8.696C59.1437 8.664 59.101 8.62667 59.0584 8.584C58.9517 8.44533 58.8237 8.30667 58.6744 8.168C58.5357 8.02933 58.349 7.91733 58.1144 7.832C57.8904 7.736 57.5917 7.688 57.2184 7.688C56.685 7.688 56.285 7.8 56.0184 8.024C55.7517 8.248 55.6184 8.53067 55.6184 8.872C55.6184 9.07467 55.677 9.256 55.7944 9.416C55.9117 9.576 56.1357 9.72 56.4664 9.848C56.797 9.976 57.2877 10.1147 57.9384 10.264C58.6424 10.4027 59.197 10.5893 59.6024 10.824C60.0077 11.0587 60.2957 11.3307 60.4664 11.64C60.637 11.9493 60.7224 12.3067 60.7224 12.712C60.7224 13.16 60.589 13.5707 60.3224 13.944C60.0664 14.3173 59.6824 14.616 59.1704 14.84C58.669 15.0533 58.045 15.16 57.2984 15.16Z" fill="#1B1F23"/>
</svg>
