<svg width="24" height="24" viewBox="0 0 24 24" fill="none" xmlns="http://www.w3.org/2000/svg">
<g clip-path="url(#clip0_10435_4710)">
<path d="M4.87725 20.1714C4.75209 19.8388 4.27996 19.7456 4.03678 20.004C3.71339 20.3225 3.94692 20.8872 4.401 20.8843C4.75654 20.8945 5.0242 20.4958 4.87725 20.1714Z" fill="white"/>
<path d="M7.61376 14.314L10.7495 12.1789C11.8045 11.4606 12.651 10.4711 13.1973 9.31768L14.697 6.15184C15.1545 6.33109 15.5425 6.64881 15.8128 7.07185C16.1557 7.60853 16.2653 8.24574 16.1213 8.86614L15.466 11.6901H14.1071C13.8223 11.6901 13.5915 11.921 13.5915 12.2057C13.5915 12.4905 13.8223 12.7214 14.1071 12.7214H22.065C22.5577 12.7214 22.9585 13.1222 22.9585 13.6149C22.9585 14.1076 22.5577 14.5084 22.065 14.5084H21.5884C21.3037 14.5084 21.0728 14.7393 21.0728 15.0241C21.0728 15.3088 21.3037 15.5397 21.5884 15.5397C22.0811 15.5397 22.482 15.9405 22.482 16.4332C22.482 16.9259 22.0811 17.3267 21.5884 17.3267H21.0643C20.7795 17.3267 20.5486 17.5576 20.5486 17.8424C20.5486 18.1271 20.7795 18.358 21.0643 18.358C21.557 18.358 21.9578 18.7588 21.9578 19.2515C21.9578 19.7442 21.557 20.1451 21.0643 20.1451H20.3018C20.0171 20.1451 19.7862 20.3759 19.7862 20.6607C19.7862 20.9454 20.0171 21.1763 20.3018 21.1763C20.7945 21.1763 21.1954 21.5771 21.1954 22.0698C21.1954 22.5625 20.7945 22.9634 20.3018 22.9634C20.2777 22.9634 20.2542 22.9656 20.231 22.9688H14.6159C12.7977 22.9688 11.0389 22.4329 9.52969 21.4191L7.61109 20.1302L7.03603 20.9862L8.95462 22.2751C10.6345 23.4037 12.5921 24.0002 14.6159 24.0002H20.28C20.3075 24.0002 20.3343 23.9974 20.3607 23.9933C21.3949 23.962 22.2267 23.1116 22.2267 22.07C22.2267 21.6694 22.1036 21.297 21.8934 20.9885C22.5409 20.6782 22.9891 20.0162 22.9891 19.2516C22.9891 18.8099 22.8396 18.4025 22.5884 18.0774C23.1426 17.7391 23.5133 17.1287 23.5133 16.4333C23.5133 15.9823 23.3569 15.5674 23.0962 15.239C23.6328 14.897 23.9898 14.2971 23.9898 13.6149C23.9898 12.5536 23.1264 11.6901 22.065 11.6901H16.5247L17.1259 9.09924C17.3331 8.20628 17.1754 7.28903 16.6817 6.51657C16.1881 5.74412 15.4221 5.21565 14.5246 5.02848C14.2913 4.97987 14.0553 5.09724 13.9534 5.31254L12.2653 8.87621C11.7974 9.86406 11.0724 10.7114 10.169 11.3266L7.03326 13.4617L7.61376 14.314Z" fill="white"/>
<path d="M5.98128 23.9943H0.525879C0.241113 23.9943 0.0102539 23.7635 0.0102539 23.4787V12.1055C0.0102539 11.8207 0.241113 11.5898 0.525879 11.5898H5.98128C7.00574 11.5898 7.83918 12.4233 7.83918 13.4478V22.1364C7.83918 23.1609 7.00574 23.9943 5.98128 23.9943ZM1.0415 22.9631H5.98128C6.4371 22.9631 6.80793 22.5922 6.80793 22.1364V13.4478C6.80793 12.9919 6.4371 12.6211 5.98128 12.6211H1.0415V22.9631Z" fill="#FFED92"/>
<path d="M11.7573 4.09864C11.6254 4.09864 11.4934 4.0483 11.3927 3.94761L10.4074 2.9623C10.2061 2.76092 10.2061 2.43444 10.4074 2.23306C10.6088 2.03169 10.9353 2.03169 11.1366 2.23306L12.122 3.21837C12.3233 3.41975 12.3233 3.74623 12.122 3.94761C12.0213 4.0483 11.8893 4.09864 11.7573 4.09864Z" fill="#FFED92"/>
<path d="M17.161 4.09862C17.029 4.09862 16.8971 4.04828 16.7964 3.94759C16.5951 3.74622 16.5951 3.41973 16.7964 3.21836L17.7817 2.23304C17.9831 2.03172 18.3096 2.03167 18.5109 2.23304C18.7123 2.43442 18.7123 2.7609 18.5109 2.96228L17.5256 3.94759C17.4249 4.04828 17.2929 4.09862 17.161 4.09862Z" fill="#FFED92"/>
<path d="M14.4591 2.42466C14.1744 2.42466 13.9435 2.1938 13.9435 1.90903V0.515625C13.9435 0.230859 14.1744 0 14.4591 0C14.7439 0 14.9748 0.230859 14.9748 0.515625V1.90903C14.9748 2.1938 14.7439 2.42466 14.4591 2.42466Z" fill="#FFED92"/>
</g>
<defs>
<clipPath id="clip0_10435_4710">
<rect width="24" height="24" fill="white"/>
</clipPath>
</defs>
</svg>
