<svg width="31" height="30" viewBox="0 0 31 30" fill="none" xmlns="http://www.w3.org/2000/svg">
<path d="M23.375 21.7188C23.6875 22.0729 23.6979 22.4271 23.4062 22.7812C23.2604 22.9271 23.0833 23 22.875 23C22.6875 23 22.5 22.9271 22.3125 22.7812L18.125 18.5938C17 19.5104 15.6562 19.9792 14.0938 20C12.2604 19.9583 10.7396 19.3229 9.53125 18.0938C8.30208 16.8646 7.66667 15.3333 7.625 13.5C7.66667 11.6667 8.29167 10.1354 9.5 8.90625C10.7292 7.67708 12.2604 7.04167 14.0938 7C15.9271 7.04167 17.4583 7.67708 18.6875 8.90625C19.9167 10.1354 20.5521 11.6667 20.5938 13.5C20.5729 15.0417 20.1042 16.3854 19.1875 17.5312L23.375 21.7188ZM9.125 13.5C9.16667 14.9167 9.65625 16.0938 10.5938 17.0312C11.5312 17.9688 12.7083 18.4583 14.125 18.5C15.5417 18.4583 16.7188 17.9688 17.6562 17.0312C18.5938 16.0938 19.0833 14.9167 19.125 13.5C19.0833 12.0833 18.5938 10.9062 17.6562 9.96875C16.7188 9.03125 15.5417 8.54167 14.125 8.5C12.7083 8.54167 11.5312 9.03125 10.5938 9.96875C9.65625 10.9062 9.16667 12.0833 9.125 13.5Z" fill="#0E0804"/>
</svg>
